<svg xmlns="http://www.w3.org/2000/svg" viewBox="-50 -50 100 100">
  <path
    fill="#eab308"
    d="
      M -50 40
      L -50 -35
      A 5 5 0 0 1 -45 -40
      L -20 -40
      A 5 5 0 0 1 -15 -35
      A 5 5 0 0 0 -10 -30
      L 25 -30
      A 5 5 0 0 1 30 -25
      L 30 40
    "
  />
  <g transform="skewX(-18) translate(13, 0)">
    <path
      fill="#eab308"
      d="
        M -50 40
        L -50 -15
        A 5 5 0 0 1 -45 -20
        L 25 -20
        A 5 5 0 0 1 30 -15
        L 30 40
      "
    />
    <path
      fill="white"
      opacity="0.35"
      d="
        M -50 40
        L -50 -15
        A 5 5 0 0 1 -45 -20
        L 25 -20
        A 5 5 0 0 1 30 -15
        L 30 40
      "
    />
  </g>
</svg>
