<svg xmlns="http://www.w3.org/2000/svg" viewBox="-50 -50 100 100">
  <path
    fill="#84cc16"
    d="
      M 15 -50
      L 40 -25
      L 40 40
      A 10 10 0 0 1 30 50
      L -30 50
      A 10 10 0 0 1 -40 40
      L -40 -40
      A 10 10 0 0 1 -30 -50
      z
    "
  />
  <path fill="white" opacity="0.5" d="M 15 -50 L 40 -25 L 15 -25" />
  <g
    fill="none"
    stroke="white"
    stroke-width="5"
    stroke-linecap="round"
    stroke-linejoin="round"
    transform="translate(0, 10)"
  >
    <path
      d="
        M -10 15
        L -10 -15
        L 15 -20
        L 15 10
        M -10 -10
        L 15 -15
      "
    />
    <path
      fill="white"
      stroke-width="3"
      transform="translate(1, 0)"
      d="
        M -10 15
        A 1 1 0 0 0 -22 15
        A 1 1 0 0 0 -10 15
        M 15 10
        A 1 1 0 0 0 3 10
        A 1 1 0 0 0 15 10
      "
    />
  </g>
</svg>
