<svg xmlns="http://www.w3.org/2000/svg" viewBox="-50 -50 100 100">
  <path
    fill="#f97316"
    d="
      M 15 -50
      L 40 -25
      L 40 40
      A 10 10 0 0 1 30 50
      L -30 50
      A 10 10 0 0 1 -40 40
      L -40 -40
      A 10 10 0 0 1 -30 -50
      z
    "
  />
  <path fill="white" opacity="0.5" d="M 15 -50 L 40 -25 L 15 -25" />
  <path
    fill="white"
    transform="translate(0, 10) scale(0.25, 0.25) translate(-10, 280) translate(-128, -128)"
    d="M250.2-143.7c-12.2-12-47-8.7-64.4-6.5-17.2-10.5-28.7-25-36.8-46.3 3.9-16.1 10.1-40.6 5.4-56-4.2-26.2-37.8-23.6-42.6-5.9-4.4 16.1-.4 38.5 7 67.1-10 23.9-24.9 56-35.4 74.4-20 10.3-47 26.2-51 46.2-3.3 15.8 26 55.2 76.1-31.2 22.4-7.4 46.8-16.5 68.4-20.1 18.9 10.2 41 17 55.8 17 25.5 0 28-28.2 17.5-38.7zm-198.1 77.8c5.1-13.7 24.5-29.5 30.4-35-19 30.3-30.4 35.7-30.4 35zm81.6-190.6c7.4 0 6.7 32.1 1.8 40.8-4.4-13.9-4.3-40.8-1.8-40.8zm-24.4 136.6c9.7-16.9 18-37 24.7-54.7 8.3 15.1 18.9 27.2 30.1 35.5-20.8 4.3-38.9 13.1-54.8 19.2zm131.6-5s-5 6-37.3-7.8c35.1-2.6 40.9 5.4 37.3 7.8z"
  />
</svg>
