<svg xmlns="http://www.w3.org/2000/svg" viewBox="-50 -50 100 100">
  <path
    fill="#8b5cf6"
    d="
      M 15 -50
      L 40 -25
      L 40 40
      A 10 10 0 0 1 30 50
      L -30 50
      A 10 10 0 0 1 -40 40
      L -40 -40
      A 10 10 0 0 1 -30 -50
      z
    "
  />
  <path fill="white" opacity="0.5" d="M 15 -50 L 40 -25 L 15 -25" />
  <g
    fill="none"
    stroke="white"
    stroke-width="5"
    stroke-linecap="round"
    stroke-linejoin="round"
    transform="translate(0, 10)"
  >
    <path
      d="
        M 5 5
        L 5 -20
        M -20 -20
        L -5 -20
        M 15 -20
        L 20 -20
        M -20 -10
        L -5 -10
        M 15 -10
        L 20 -10
        M -20 0
        L -15 0
        M 15 0
        L 20 0
        M -20 10
        L -15 10
        M 15 10
        L 20 10
        M -20 20
        L 20 20
      "
    />
    <path
      fill="white"
      stroke-width="3"
      transform="translate(1, 0)"
      d="
        M 5 5
        A 1 1 0 0 0 -7 5
        A 1 1 0 0 0 5 5
      "
    />
  </g>
</svg>
