<svg xmlns="http://www.w3.org/2000/svg" viewBox="120 200 820 600">
  <style>
    #mask {
      stroke-dasharray: 1 1;
      animation: stroke 1s 0.5s both;
    }

    @keyframes stroke {
      0% {
        stroke-dashoffset: 1;
      }
      20% {
        stroke-dashoffset: 0.87;
      }
      40% {
        stroke-dashoffset: 0.62;
      }
      60% {
        stroke-dashoffset: 0.27;
      }
      80% {
        stroke-dashoffset: 0.09;
      }
      100% {
        stroke-dashoffset: 0;
      }
    }
  </style>
  <mask id="mask" fill="none" stroke="white" stroke-width="75">
    <path
      pathLength="1"
      d="M125,375c176.45-135.11,334.84-218.31,219.34,23.04-38,88.98-152.28,267.22-161.78,339.04,1.71,39.37,51.61-3.15,151.73-89.4,87-76.23,193.62-172.54,277.71-249.45,89.1-80.93,186.1-173.62,202.35-145.93,15.57,23.5-19.19,92.01-40.48,149.89-9.83,25.13-19.62,51.27-27.39,76.74-53.62,167.72,32.23,198.51,190.52,146.07"
    />
  </mask>
  <path
    mask="url(#mask)"
    fill="currentColor"
    d="M124.5,375.5c43.3-56.48,177.93-190.04,254.29-164.48,21.34,6.59,36.42,25.04,41.13,46.44,7.18,32.67-3.5,68.36-13.63,98.6-40.17,111.55-107.04,209.95-159.74,315.17-7.36,14.84-14.23,29.43-19.97,44.53-2.33,6.1-4.51,12.69-5.7,18.79-.28,1.47-.37,2.63-.37,2.63,0,0-.01.02-.01.02.02-.11,0-.19,0-.3,0-.02-.01-.09-.01-.18,0,0-.02-.25-.02-.25-.22-2.59-1.28-5.31-2.49-7.72-5-9.96-17.58-16.38-27.81-14.72-.26.03-.52.08-.78.14-.32.04-.68.17-.73.17,3.52-1.43,8.29-4.27,13.15-7.44,8.69-5.69,17.49-12.25,25.95-18.75,144.32-116.2,277.98-246.09,415.24-370.76,26.54-23.85,53.48-47.78,82.29-69.69,17.54-12.9,33.16-24.53,54.74-32.71,25.84-9.66,54.78-4,69.18,21.92,12.08,22.42,6.15,48.71-.45,70.94-12.33,39.55-30.74,78.65-46.3,116.84-16.67,40.93-33.82,81.49-41.54,124.61-8.26,50.55,4.79,73.46,57.05,79.85,39.85,4.45,79.65-1.13,119.54-4.64-45.02,26.42-107.18,50.66-160.08,40.56-32.41-6.19-57.73-27.72-68.55-59.05-11.37-32.72-8.19-68.42-2.01-101.44,13.53-70.22,44.22-135.36,66.76-202.1,3.07-9.31,6-19.44,7.53-28.45.32-1.96.51-3.74.58-5.08.09-1.35-.04-2.17-.05-1.93.43,4.36,3.15,8.64,6.87,12.22,4.51,4.14,10.77,6.77,16.87,6.51.2,0,.43-.04.61-.06,1.19-.12.8-.1-.06.27-11.27,5.07-23.6,14.62-34.01,22.6-44.46,35.39-86.67,74.64-129.3,112.69-122.11,109.02-241.15,223.95-369.11,326.3-10.03,7.69-19.92,15.07-30.76,22.16-10.99,7.03-23.69,14.81-38.22,17.9-25.14,5.55-49.77-8.43-56.86-33.59-1.51-5.31-2.15-10.35-2.25-15.69-.17-6.08.68-12.32,1.48-17,3.16-17.28,9.41-33.51,15.87-49.49,48.69-112.56,111.65-217.57,160.77-329.19,7.81-18.45,15.77-37.77,19.92-57.12.86-4.17,1.43-8.56,1.58-12.23.09-.2.26.26.99,1.38.69,1.09,2.1,2.82,3.85,4.15,1.75,1.34,3.64,2.09,4.68,2.28,1.07.21,1.33.01.93-.15-3.86-.98-8.28-.13-13.6.74-4.27.86-8.91,2.02-13.68,3.44-9.88,3.02-19.97,6.72-29.75,10.73-58.82,24.18-114.93,55.2-174,79.64h0Z"
  />
</svg>
