<svg xmlns="http://www.w3.org/2000/svg" viewBox="0 0 1000 1000">
  <rect width="1000" height="1000" fill="black" />
  <path
    fill="white"
    d="M125,372.1c36.65-41.13,79.12-78.7,122.76-112.79,36.03-26.35,82.31-60.15,127.51-50.35,88.3,27,25.89,152.58-.17,209.18-40.58,85.5-90.77,169.47-132.38,254.19-8.47,17.7-17.11,35.72-22.82,54.52-5.16,18.85-1.28-8.16-28.51-12.01-1.11-.3-1.69-.62-1.65-1.06.02-.79,2.29-2.13,5.27-3.94,2.68-1.62,5.32-3.35,7.92-5.13,27.78-19.41,53.25-41.3,79.13-63.11,155.58-130.27,299.67-274.18,457.44-401.95,27.47-20.43,67.23-43.23,99.17-18.91,34.22,26.97,18.54,75.8,6.3,110.48-24.32,69.86-59.61,135.58-71.13,208.65-1.76,9.03-4.36,18.43-5.58,27.56-2.31,15.96-1.61,35.29,11.46,46.63,25.73,21.42,69.87,19.58,101.85,18.07,16.98-1.1,33.95-3.23,50.79-5.6,1.29-.16,2.39-.26,3.18-.27,1.23-.01,1.68.21,1.28.7-.33.41-1.29,1.02-2.65,1.75-.75.4-1.61.84-2.53,1.29-42.81,20.59-91.58,39.78-140.04,37.03-69.15-4.7-96.65-62.36-95.07-124.57-.06-15.25,3.87-30.04,7.81-44.65,17.55-70.08,50-135.11,72.96-202.84,1.85-5.77,3.66-11.79,4.92-17.65.11-.51.21-1.01.31-1.49.66-2.6.62-4.43,1.89-5.17.37-.03.73.22,1.03.51,1.55,1.68,5.54,7.37,9.11,9.29,2.34,1.51,5.15,2.61,7.71,3.44,1.47.56,2.56.67,3.14,1.77.06.13-.07.43-.18.59-1.39,1.54-3.66,2.53-5.57,3.74-18.55,11.25-35.15,25.29-51.8,39.18-165.56,142.49-321.65,296.81-493.81,431.65-19.34,13.45-40.47,28.74-64.92,28.44-23.29.11-43.76-18.6-46.65-41.55-4.92-34.99,19.02-79.74,33.57-111.27,51.5-106.15,118.15-208.1,159.36-318.75,3.75-11.05,8.12-25.33,8.99-35.97.39-3.15-.17-5.29.99-5.69.19-.03.49.1.69.19,1.36.67,4.05,2.68,4.6,3.35.17.22.12.25.02.32-.33.12-.7.05-1.17.05-8.78-.62-20.85,1.83-29.74,4.38-68.6,20.07-130.58,57.66-194.77,87.83l-.04-.05Z"
  />
</svg>
