<svg
  xmlns="http://www.w3.org/2000/svg"
  width="10"
  height="10"
  viewBox="8 9 46 86"
>
  <path
    fill="black"
    d="m 21.46,94.64 c 8.25,-0.88 14.39,-9.26 13.32,-17.54 0,-14.57 0,-29.16 0,-43.72 0.56,-0.65 1.71,0.73 2.3,0.8 6.64,4 12.51,10.47 12.91,18.59 0.44,6.34 -1.47,12.55 -3.62,18.43 7.19,-8.91 9.5,-21.91 4.5,-32.44 -2.56,-6.11 -8.32,-9.88 -11.55,-15.55 a 31.12,31.12 0 0 1 -4.76,-12.5 c -0.47,-0.93 -1.63,-1 -2.54,-1 H 32 c -2.87,0 -2.48,1.91 -2.48,3.85 v 55.21 c 0,0 -1.49,-0.14 -2.59,-0.14 C 18.52,68.08 9.39,74.18 8.55,83 7.57,90 14.91,95.73 21.46,94.64 Z"
  />
</svg>
