<svg xmlns="http://www.w3.org/2000/svg" viewBox="0 0 1000 1000">
  <style>
    #mask {
      stroke-dasharray: 1 1;
      animation: stroke 1s;
    }

    @keyframes stroke {
      0% {
        stroke-dashoffset: 1;
      }
      20% {
        stroke-dashoffset: 0.87;
      }
      40% {
        stroke-dashoffset: 0.62;
      }
      60% {
        stroke-dashoffset: 0.27;
      }
      80% {
        stroke-dashoffset: 0.09;
      }
      100% {
        stroke-dashoffset: 0;
      }
    }
  </style>
  <mask id="mask" fill="none" stroke="white" stroke-width="60">
    <path
      pathLength="1"
      d="M125,375c114.81-87.22,219.2-152.05,250-125,63.76,56-232.21,466.93-188,500,16.99,12.71,75.84-36.6,313-250,193.94-174.51,292.65-265.81,312-250,33,26.95-191.59,293.49-125,375,32.73,40.06,123.24,20.07,188,0"
    />
  </mask>
  <path
    mask="url(#mask)"
    fill="currentColor"
    d="M814.83,673.64c-10.26,1.6-20.7,2.88-31.25,3.71-12.21,1.01-24.7,1.51-37.77.75-3.24-.14-6.58-.48-9.89-.8-1.66-.16-3.37-.43-5.04-.64l-2.53-.35c-.84-.12-1.71-.3-2.57-.44-6.8-1.11-13.87-2.9-21-5.37l-2.68-.97c-.89-.32-1.78-.65-2.69-1.06-1.8-.78-3.6-1.57-5.39-2.38-1.8-.92-3.6-1.88-5.38-2.84-.89-.46-1.78-1.01-2.66-1.58l-2.64-1.69c-7.01-4.63-13.65-10.59-19.14-17.57-5.49-6.99-9.58-14.93-12.35-22.81-2.72-7.9-4.21-15.74-4.84-23.19-.34-3.74-.47-7.39-.44-10.96,0-3.58.18-7.07.45-10.49.54-6.85,1.53-13.41,2.77-19.77,2.5-12.72,6-24.66,9.96-36.21,7.97-23.06,17.77-44.62,28.2-65.73,10.46-21.08,21.67-41.64,33.16-62.04,2.66-4.67,5.32-9.36,7.99-14.05,1.23-2.1,2.47-4.2,3.71-6.3,2.51-4.25,5.02-8.51,7.55-12.79,2.56-4.37,5.16-8.85,7.73-13.52,2.56-4.67,5.14-9.52,7.35-14.73,1.08-2.61,2.1-5.32,2.59-8.19.22-1.42.3-2.93-.19-4.27-.25-.66-.66-1.25-1.2-1.65-.54-.4-1.18-.59-1.81-.67-1.27-.16-2.51.11-3.71.44-1.2.34-2.36.8-3.5,1.31-2.29,1.02-4.5,2.26-6.7,3.57-5.98,3.38-12.27,7.83-18.86,12.79-6.58,4.97-13.44,10.5-20.43,16.31l-2.63,2.19-4.56,3.89c-3.44,2.96-6.89,5.93-10.34,8.91-6.88,6-13.77,12.02-20.69,18.05-13.79,12.12-27.58,24.4-41.34,36.72-55.01,49.33-109.61,99.34-161.07,145.44,30.77-27.02,61.62-54.33,92.55-81.78,30.93-27.44,61.94-55.03,93.09-82.44,15.58-13.7,31.2-27.36,46.89-40.86l5.89-5.06,2.98-2.51,5.32-4.43c3.54-2.92,7.05-5.79,10.56-8.59,7.02-5.56,13.94-10.92,21.1-15.46,1.79-1.12,3.61-2.19,5.47-3.13,1.87-.92,3.78-1.77,5.83-2.12,1.01-.17,2.1-.18,3.08.27.98.47,1.63,1.51,1.82,2.63.21,1.12.12,2.29-.07,3.42-.19,1.14-.49,2.25-.84,3.35-1.43,4.38-3.45,8.49-5.5,12.48-2.07,3.98-4.25,7.84-6.43,11.59-4.38,7.51-8.77,14.63-12.93,21.4l-1.55,2.52-.9,1.49-1.86,3.2c-2.6,4.51-5.2,9.02-7.79,13.53-5.18,9.05-10.32,18.15-15.37,27.34-10.1,18.38-19.89,37.08-28.9,56.51-4.5,9.72-8.81,19.62-12.78,29.83-3.97,10.22-7.63,20.73-10.69,31.8-3.04,11.07-5.55,22.66-6.7,35.3-.58,6.3-.74,12.92-.36,19.81.44,6.91,1.46,14.15,3.56,21.59,2.07,7.41,5.24,15.02,9.66,22.14,2.23,3.53,4.66,7.01,7.47,10.12l2.08,2.37,1.06,1.17,1.11,1.09c1.49,1.44,3.01,2.87,4.54,4.27,6.27,5.32,12.99,9.56,19.73,12.94,3.33,1.53,6.74,3.13,10.05,4.27,3.36,1.31,6.62,2.25,9.91,3.23,6.49,1.74,12.91,3.1,19.07,3.92,6.23.93,12.21,1.37,18.16,1.72,11.8.54,23.12.19,34.13-.62-8.76,2.03-18.22,3.76-28.7,4.75-10.48.96-21.97,1.24-34.94-.34-1.59-.16-3.3-.49-4.96-.74-.84-.14-1.68-.28-2.52-.43l-1.26-.22-1.3-.28c-1.74-.4-3.49-.81-5.24-1.21l-1.32-.32-1.36-.4c-.91-.27-1.81-.55-2.73-.82-3.6-1.01-7.42-2.57-11.17-4.07-3.85-1.8-7.68-3.56-11.58-5.99-.97-.59-1.93-1.17-2.9-1.76-.97-.6-1.93-1.32-2.89-1.99-.96-.7-1.91-1.39-2.87-2.09-.95-.71-1.91-1.4-2.83-2.22-1.86-1.59-3.7-3.23-5.52-4.91-1.77-1.77-3.48-3.64-5.18-5.52-3.36-3.8-6.42-7.99-9.07-12.37-2.65-4.38-4.92-8.96-6.79-13.58-4.38-11.19-6.38-22.15-7.13-32.17-.73-10.04-.3-19.34.69-28.03,2.02-17.39,6.09-32.65,10.71-47.08,4.67-14.41,10.05-27.89,15.75-40.94,5.71-13.03,11.75-25.6,17.98-37.87,12.46-24.54,25.63-47.99,38.79-70.97.79-1.34.68-1.09.87-1.36l.43-.58.92-1.27c.63-.89,1.3-1.87,1.99-2.92,3.13-1.88,9.26-5.56,12.34-7.41,1.54-3.64,3.03-6.99,3.91-10.53.2-.89.36-1.79.31-2.72-.03-.46-.12-.93-.37-1.35-.24-.42-.7-.74-1.23-.82-1.07-.15-2.14.29-3.1.71-.97.44-1.89.98-2.77,1.53-3.52,2.23-6.6,4.66-9.66,7.03-3.05,2.4-6.03,4.8-9.1,7.29l-2.32,1.88-.59.48-.42.35-1.27,1.09-5.08,4.35c-6.77,5.84-13.53,11.66-20.28,17.49-13.5,11.75-26.98,23.48-40.45,35.19-26.93,23.6-53.8,47.15-80.67,70.69-53.77,47.21-107.47,94.53-161.59,142.53-27.09,23.99-54.25,48.15-82.05,72.39l-2.61,2.27-4.34,3.72-8.89,7.57c-5.95,5.03-11.94,10.03-17.96,14.96-12.03,9.81-24.25,19.41-36.13,27.52l-4.4,2.88c-.73.47-1.48.98-2.2,1.42l-2.15,1.3c-1.42.84-2.89,1.79-4.28,2.54l-4.17,2.28c-5.47,2.84-10.66,5.09-15.49,6.75-4.84,1.66-9.31,2.76-13.57,3.48-4.25.7-8.28,1.07-12.3.99,2.09.38,3.28.66,3.84.99.56.34.49.68.07,1.04-.83.71-3.05,1.42-4.33,1.94-.62-.05-1.21-.09-1.78-.17.57.08,1.16.12,1.78.17-1.15.48-1.59.94.21,1.51.91.26,2.36.54,4.65.68,2.29.14,5.4.14,9.88-.46-4.48.6-7.6.6-9.88.46-2.28-.14-3.74-.43-4.65-.68-1.8-.57-1.36-1.03-.21-1.51,3.87.31,7.82.22,12.06-.25,4.23-.48,8.76-1.37,13.67-2.85,1.25-.41,2.47-.76,3.75-1.22l3.91-1.48c1.32-.53,2.72-1.19,4.07-1.77.69-.32,1.35-.57,2.06-.94l2.14-1.08,2.14-1.08,1.07-.54,1.1-.62,4.43-2.52c.73-.4,1.49-.89,2.25-1.36l2.28-1.43c1.52-.96,3.02-1.85,4.59-2.94,12.37-8.23,25.19-18.08,37.86-28.26l9.5-7.72,9.46-7.84,9.41-7.91,6.95-5.9c27.63-23.63,54.48-47.34,81.16-70.97,53.29-47.29,105.75-94.33,158.31-141.21,26.27-23.44,52.54-46.84,78.9-70.12,13.18-11.64,26.39-23.25,39.65-34.79,6.63-5.75,13.27-11.5,19.92-17.25l9.99-8.57,2.36-2.01.38-.29.72-.54c3.82-2.85,7.1-5.2,9.91-6.55.71-.32,1.39-.6,2.1-.65.34,0,.76,0,1.04.43.26.44.15,1.1-.02,1.65-.36,1.13-.94,2.16-1.49,3.12-.56.96-1.13,1.84-1.69,2.67.49-.78.98-1.6,1.44-2.47.45-.87.92-1.79,1.16-2.79.11-.48.13-1.07-.21-1.37-.35-.27-.76-.2-1.12-.13-.73.18-1.43.54-2.13.94-2.79,1.64-5.74,3.99-8.87,6.53l-.29.24-1.43,1.23-5.13,4.44-10.24,8.91c-6.81,5.98-13.63,11.97-20.44,17.95-13.61,12.01-27.18,24.09-40.74,36.21-27.1,24.34-54.17,48.67-81.23,72.98-54.16,48.75-108.2,97.55-162.99,146.14-13.71,12.14-27.48,24.27-41.37,36.36-6.98,6.03-13.97,12.07-20.96,18.1l-5.28,4.51-7.73,6.55c-6.61,5.57-13.25,11.1-19.91,16.55-13.31,10.87-26.78,21.48-39.94,30.71-1.66,1.21-3.27,2.25-4.89,3.34-1.62,1.06-3.26,2.2-4.86,3.21-3.16,1.93-6.39,4.02-9.43,5.63l-2.31,1.29-1.15.64-1.11.55-4.44,2.19c-1.45.67-2.84,1.22-4.26,1.83-1.44.65-2.77,1.09-4.11,1.57-5.39,1.93-10.33,3.12-14.86,3.76-4.54.65-8.69.78-12.66.56-1.99-.1-3.93-.32-5.86-.63-1.94-.3-3.87-.72-5.86-1.3-2-.58-4.05-1.27-6.3-2.32-2.27-.97-4.63-2.57-7.18-4.23-1.22-1.03-2.43-2.09-3.56-3.11l-1.65-1.51c-.52-.5-.97-1.04-1.44-1.55-1.78-2.08-3.22-4.06-4.43-6.04-1.21-1.98-2.25-3.91-3.13-5.91-.89-1.99-1.69-4-2.34-6.11-1.35-4.18-2.32-8.65-2.8-13.68-.5-5.01-.52-10.55.11-16.74.64-6.18,1.95-13.01,3.9-20.31,1.98-7.33,4.64-15.14,7.66-23.13,1.48-3.99,3.17-8.07,4.82-12.15,1.75-4.11,3.48-8.22,5.35-12.37,3.68-8.29,7.58-16.64,11.63-24.99,2-4.18,4.08-8.34,6.13-12.52l5.6-11.17c2.26-4.44,4.52-8.88,6.78-13.32,4.54-8.85,9.12-17.64,13.72-26.39,9.19-17.51,18.46-34.89,27.7-52.24,18.46-34.7,36.86-69.3,54.14-104.11,8.63-17.4,16.97-34.85,24.67-52.29,7.67-17.4,14.78-34.92,20.15-51.74,1.3-4.11,2.85-9.24,4.15-14.57.91-3.76.62-2.68.75-3.24.06-.29.1-.59.13-.89.06-.6.05-1.22-.09-1.75-.12-.55-.46-.96-.79-1.19-.14-1.15-.95-1.89-2.06-2.29-.56-.2-1.2-.32-1.92-.37-.36-.02-.72-.04-1.13-.02-.13.02-.72.2-1.18.34l-1.44.44-2.93.95c-7.86,2.63-16.07,6.05-24.27,9.82-8.22,3.8-16.47,8-24.69,12.48-16.45,8.95-32.75,18.93-48.83,29.41-16.08,10.51-31.96,21.56-47.64,32.96,5.21-9.35-10.56-6.23-11.66-11.83-.53-2.8,2.6-7.86,14.07-17.65,5.74-4.88,13.56-10.96,24.12-18.36,10.57-7.4,23.87-16.17,40.68-26.07-.95-1.53-2.84-4.59-3.79-6.12-17.32,9.4-33.21,18.36-47.64,26.38-14.43,8.03-27.39,15.14-38.75,21.08-22.72,11.89-39.07,19.06-47.53,20.24-4.21.58-6.44-.32-6.47-2.79-.04-2.46,2.13-6.51,6.81-12.24,4.67-5.72,11.83-13.11,21.8-22.17,9.98-9.05,22.77-19.78,38.89-32.05,18.21-13.69,37.71-27.48,58.99-40.89,10.66-6.7,21.77-13.3,33.6-19.66,11.87-6.34,24.36-12.48,38.57-17.92l2.93-1.1c1.37-.49,2.87-1.03,4.32-1.51,2.91-1,5.87-1.83,8.82-2.73,5.91-1.63,11.89-3.05,17.86-3.94,5.96-.87,11.9-1.34,17.7-1.2,5.8.13,11.46.82,16.91,2.12,5.45,1.3,10.67,3.26,15.64,5.83,2.49,1.27,4.87,2.78,7.21,4.36,1.13.84,2.25,1.71,3.36,2.59,1.11.88,2.23,1.76,3.22,2.78,2.05,1.96,4.05,3.98,5.85,6.17,1.76,2.21,3.46,4.48,4.93,6.88,2.95,4.81,5.35,9.94,7.1,15.41,1.78,5.46,2.96,11.23,3.57,17.24.12,1.51.32,3,.38,4.54l.18,4.61c-.04,3.12-.04,6.23-.29,9.4-.4,6.31-1.23,12.71-2.46,19.08-.3,1.59-.58,3.19-.92,4.78l-.54,2.5-.43,1.91c-.47,1.95-.93,3.93-1.44,5.83-3.98,15.33-8.91,29.31-14.18,42.97-5.28,13.63-10.97,26.81-16.87,39.81-5.91,12.99-12.04,25.78-18.3,38.46-12.53,25.35-25.57,50.28-38.65,75-13.08,24.72-26.23,49.22-39.01,73.54-6.39,12.16-12.68,24.27-18.81,36.31-3.06,6.02-6.08,12.03-9.04,18.02l-2.21,4.49-1.1,2.24-.14.28-.03.07v.03s-.02.06-.02.06c-.03.17-.05.33-.06.49-.18.86-.2,1.45-.09,1.8.05.18.14.29.26.36.13.06.26.11.56.02.5-.24.81-.72,1.01-.98.2-.29.3-.49.33-.61.02-.06.02-.11.02-.14,0-.01,0-.03-.01-.03h0s0,0,0-.02c.02-.02-.04.03.05-.04l.52-.44,4.16-3.55c11.1-9.48,22.21-19.07,33.31-28.71,44.43-38.61,88.96-77.7,133.96-116.25,41.24-35.2,83-71.69,125.26-108.74,21.14-18.52,42.4-37.17,63.89-55.82,10.75-9.32,21.55-18.65,32.45-27.94l13.3-11.37c5-4.23,10-8.49,15.01-12.64,10-8.37,20.03-16.57,29.95-24.36,9.91-7.78,19.76-15.22,29.2-21.67,9.43-6.44,18.41-11.83,26.45-15.65,8.06-3.85,15.16-6.16,21.37-7.43l2.32-.46c.77-.15,1.49-.23,2.23-.35,1.5-.25,2.9-.37,4.32-.53,2.78-.22,5.47-.36,8.05-.28,2.58.08,5.11.27,7.64.66,2.54.39,5.09.95,7.85,1.88,1.39.5,2.88,1.02,4.36,1.91,1.5.84,3.23,1.87,5.01,3.12.91.6,1.66,1.41,2.42,2.15.76.75,1.47,1.51,2.12,2.22,1.3,1.45,2.22,2.94,3.04,4.3,1.59,2.74,2.59,5.27,3.4,7.77.79,2.5,1.37,4.98,1.8,7.54.84,5.1,1.16,10.49.84,16.67-.31,6.14-1.38,13.18-3.58,21.29-1.14,4.09-2.59,8.46-4.31,13.03-1.77,4.62-3.85,9.46-6.13,14.44-4.66,10.03-10.18,20.59-16.06,31.23-5.86,10.64-12.03,21.34-18.19,31.94-6.1,10.46-12.19,20.9-18.26,31.31-3.61,6.1-7.22,12.19-10.81,18.26-6.86,11.64-13.56,23.2-20.03,34.71-9.19,16.83-19.24,37.19-27.7,58.65-4.22,10.71-8.02,21.71-10.9,32.45-2.89,10.71-4.84,21.25-5.27,30.33-.2,4.51-.06,8.67.45,12.13.48,3.5,1.31,6.27,2.22,8.39.46,1.07.94,1.98,1.47,2.79.53.81,1.05,1.55,1.72,2.2,1.25,1.36,2.61,2.7,4.61,3.87,1.94,1.2,4.14,2.39,6.7,3.33.64.23,1.19.53,1.88.73.67.22,1.32.44,1.96.65.32.11.64.22.96.33.34.09.68.18,1.02.27.67.19,1.33.38,1.98.56,5.29,1.44,10.43,2.33,14.38,3.24,1.45.21,2.83.42,4.12.65,1.32.19,2.56.37,3.72.54,2.31.4,4.4.65,6.16,1.01,3.55.66,6,1.32,7.53,2.15,3.1,1.56,2.58,3.64.72,5.94-7.49.51-14.89.66-22.05.3-7.15-.36-14.08-1.23-20.4-2.78-6.3-1.57-11.9-3.89-16.39-6.81-.28-.18-.58-.35-.86-.53l-.76-.6c-.51-.4-1.03-.78-1.55-1.16-.48-.42-.91-.86-1.38-1.28-.46-.42-.96-.81-1.33-1.3-.4-.46-.81-.92-1.23-1.37-.44-.43-.75-.96-1.15-1.43-.7-1-1.39-2.01-1.98-3.12-2.44-4.32-3.97-9.7-4.67-15.78-.68-6.09-.48-12.81.35-19.72.83-6.92,2.26-14.04,4.12-21.2,1.85-7.16,4.1-14.36,6.62-21.55,5.05-14.38,11.15-28.69,17.75-42.86,6.62-14.18,13.76-28.23,21.19-42.19,7.44-13.97,15.16-27.84,23.01-41.7,5.52-9.7,11.04-19.4,16.55-29.09,5.79-10.17,11.57-20.37,17.08-30.47,6.83-12.39,13.21-24.71,18.03-35.91,4.83-11.22,7.97-21.09,10.11-29.93,2.08-8.85,3.4-16.77,3.59-24.71.03-1.99-.02-3.98-.23-6.01-.22-2.03-.55-4.09-1.25-6.23-.68-2.13-1.75-4.38-3.59-6.44-1.74-2.18-4.4-3.62-6.64-4.44-2.26-.86-4.43-1.13-6.49-1.24-2.06-.1-4.03-.03-5.96.17-3.86.37-7.6,1.13-11.41,2.06-7.6,1.91-15.52,4.64-24.48,8.71-4.52,2.12-9.26,4.55-14.29,7.49-5.06,3.02-10.29,6.3-15.75,10.13-10.87,7.5-22.3,16.28-33.78,25.49-11.5,9.21-23.08,18.85-34.67,28.63l-24.82,20.97c-15.03,12.75-29.96,25.56-44.87,38.37-29.74,25.62-59.47,51.24-89.2,76.86,29.31-24.74,58.69-49.82,88.29-75.08,14.84-12.63,29.72-25.29,44.64-37.98,7.9-6.66,15.82-13.34,23.74-20.02,11.42-9.66,22.84-19.2,34.21-28.37,11.35-9.15,22.68-17.99,33.57-25.71,10.85-7.66,21.22-14.1,30.32-18.48,9.19-4.51,17.25-7.45,25-9.66,3.88-1.09,7.68-1.98,11.58-2.51,1.95-.28,3.93-.46,5.98-.47,2.04,0,4.2.09,6.45.68,1.11.29,2.29.72,3.48,1.29,1.18.56,2.44,1.3,3.46,2.26,2.07,1.96,3.56,4.21,4.36,6.4.86,2.19,1.29,4.3,1.56,6.37.27,2.07.36,4.09.36,6.11-.01,4.03-.39,8.01-.97,12.11-.59,4.1-1.38,8.31-2.42,12.75-2.05,8.83-5.12,18.72-9.88,30.01-4.74,11.26-11.12,23.72-17.98,36.32-5.56,10.1-11.39,20.26-17.21,30.37l-16.63,28.87c-7.92,13.74-15.71,27.47-23.22,41.28-7.5,13.81-14.73,27.7-21.44,41.7-6.7,14-12.92,28.13-18.13,42.37-5.19,14.21-9.45,28.6-11.49,42.56-2.05,13.88-1.53,27.42,3.15,37.1,1.16,2.43,2.52,4.68,4.23,6.67.88.97,1.67,2.03,2.7,2.9.5.45.94.95,1.47,1.38l1.63,1.27c4.35,3.4,10,5.97,16.25,7.85,6.26,1.88,13.15,3.03,20.27,3.63,7.13.6,14.5.67,21.95.36-2.08,1.98-4.16,3.93-4.8,5.8-.63,1.86.18,3.75,4.09,5.32,0,0,.6-.04,1.7-.1,1.09-.08,2.68-.13,4.64-.31,3.93-.32,9.37-.81,15.39-1.64,12.07-1.52,26.46-4.38,36-6.52,9.8-1.04,18.12-1.97,25.13-2.59,7.01-.61,12.7-.94,17.22-.92,9.04.03,13.41,1.46,14.21,4.05,1.59,5.11-11.07,14.89-29.78,24.43-9.68,4.4-20.73,9.18-33.59,13.78Z"
  />
</svg>
