<svg viewBox="0 0 100 100">
  <path
    d="
        M 2.80 36.79
        C 9.10 35.12 15.28 33.34 21.25 30.91
        C 27.23 28.51 33.14 25.57 38.91 22.63
        C 40.35 21.92 41.75 21.06 43.42 20.32
        C 44.25 19.96 45.13 19.62 46.09 19.39
        C 46.56 19.27 47.05 19.19 47.55 19.13
        C 48.10 19.07 48.68 19.07 49.25 19.14
        C 50.40 19.27 51.60 19.72 52.58 20.56
        C 53.56 21.39 54.20 22.57 54.48 23.69
        C 54.77 24.84 54.73 26.00 54.54 27.02
        C 54.35 28.04 54.01 28.96 53.64 29.81
        C 52.12 33.20 49.83 35.82 47.91 38.39
        C 45.90 41.00 43.96 43.65 41.88 46.21
        L 35.71 53.94
        C 34.68 55.22 33.66 56.53 32.61 57.80
        L 29.44 61.58
        L 23.10 69.16
        C 22.06 70.43 20.93 71.67 19.84 72.92
        C 18.73 74.17 17.66 75.42 16.51 76.68
        C 15.29 77.92 14.09 78.99 13.11 80.10
        C 12.86 80.38 12.64 80.66 12.42 80.94
        C 12.32 81.08 12.21 81.21 12.12 81.35
        L 11.99 81.56
        L 11.95 81.62
        C 11.93 81.64 11.96 81.64 11.98 81.44
        C 11.98 81.34 11.98 81.18 11.91 80.98
        C 11.84 80.79 11.70 80.58 11.56 80.44
        C 11.25 80.18 11.10 80.19 11.09 80.17
        C 11.08 80.17 11.04 80.17 11.04 80.17
        C 11.06 80.21 11.60 79.91 12.17 79.40
        L 14.11 77.81
        L 17.93 74.71
        C 20.47 72.65 22.94 70.50 25.45 68.40
        C 27.95 66.28 30.48 64.20 32.94 62.04
        C 42.79 53.42 52.15 44.28 61.69 35.17
        C 66.48 30.64 71.36 26.17 76.46 21.92
        L 80.29 18.81
        C 81.55 17.78 82.89 16.61 84.65 15.68
        C 85.08 15.45 85.56 15.24 86.06 15.06
        L 86.44 14.94
        C 86.60 14.89 86.78 14.85 86.95 14.82
        C 87.30 14.75 87.65 14.72 88.02 14.73
        C 88.75 14.76 89.59 14.94 90.37 15.51
        C 91.15 16.08 91.68 16.95 91.83 17.89
        C 91.97 18.81 91.81 19.52 91.64 20.09
        C 91.45 20.66 91.24 21.12 91.04 21.52
        C 90.63 22.36 90.16 23.15 89.67 23.89
        C 88.69 25.38 87.59 26.70 86.59 27.98
        L 83.55 31.83
        L 77.47 39.58
        L 71.40 47.32
        C 69.48 49.83 67.80 52.44 67.19 55.15
        C 66.88 56.49 66.85 57.90 67.17 59.01
        C 67.50 60.13 68.20 61.11 69.27 61.89
        C 71.38 63.49 74.48 64.19 77.56 64.62
        C 80.65 65.03 83.84 65.09 87.07 65.08
        C 90.29 65.11 93.56 64.89 96.97 65.18
        C 97.60 65.23 98.08 65.79 98.02 66.43
        C 97.98 66.98 97.55 67.41 97.01 67.48
        L 97.00 67.48
        C 93.83 67.88 90.56 68.46 87.22 68.69
        C 83.89 68.95 80.48 69.00 77.05 68.58
        C 75.32 68.35 73.65 68.05 71.90 67.55
        C 70.18 67.03 68.43 66.31 66.84 65.13
        C 65.24 63.99 63.86 62.20 63.26 60.17
        C 62.98 59.17 62.83 58.09 62.86 57.14
        C 62.86 56.17 62.97 55.20 63.18 54.27
        C 64.02 50.52 66.07 47.50 68.09 44.80
        L 74.14 36.99
        L 80.21 29.21
        L 83.28 25.33
        C 84.31 24.02 85.31 22.81 86.13 21.55
        C 86.55 20.93 86.92 20.30 87.23 19.66
        C 87.40 19.33 87.52 19.03 87.59 18.82
        C 87.66 18.61 87.64 18.49 87.65 18.59
        C 87.68 18.72 87.74 18.84 87.86 18.92
        C 87.98 19.00 87.98 18.97 87.89 18.97
        C 87.85 18.97 87.80 18.97 87.74 18.98
        L 87.65 19.00
        L 87.45 19.07
        C 87.17 19.17 86.89 19.29 86.60 19.44
        C 85.44 20.04 84.26 21.03 82.98 22.08
        L 79.17 25.18
        C 74.17 29.34 69.33 33.73 64.56 38.22
        C 55.07 47.24 45.58 56.44 35.62 65.11
        C 33.14 67.28 30.59 69.36 28.07 71.50
        C 25.54 73.61 23.04 75.76 20.48 77.83
        L 16.63 80.94
        L 14.75 82.47
        C 14.42 82.74 14.05 83.06 13.56 83.37
        C 13.09 83.67 12.48 83.99 11.66 84.13
        C 11.27 84.19 10.80 84.19 10.39 84.11
        C 9.98 84.03 9.42 83.91 8.81 83.36
        C 8.52 83.09 8.27 82.70 8.13 82.31
        C 8.00 81.92 7.96 81.55 7.98 81.25
        C 8.02 80.64 8.18 80.23 8.34 79.89
        C 8.42 79.72 8.51 79.56 8.60 79.41
        L 8.81 79.11
        C 8.94 78.90 9.09 78.71 9.23 78.52
        C 9.51 78.15 9.80 77.78 10.10 77.45
        C 11.30 76.10 12.56 74.98 13.63 73.87
        C 14.70 72.70 15.77 71.45 16.83 70.24
        C 17.90 69.01 18.98 67.82 20.02 66.55
        L 26.32 58.99
        L 29.47 55.21
        C 30.51 53.95 31.51 52.65 32.53 51.38
        L 38.64 43.68
        C 40.70 41.14 42.64 38.48 44.64 35.88
        C 46.66 33.22 48.72 30.79 49.89 28.14
        C 50.47 26.84 50.74 25.57 50.50 24.70
        C 50.37 24.23 50.18 23.91 49.91 23.67
        C 49.64 23.44 49.24 23.27 48.76 23.21
        C 48.52 23.18 48.27 23.18 48.00 23.20
        C 47.68 23.25 47.37 23.29 47.04 23.37
        C 46.40 23.52 45.73 23.76 45.05 24.05
        C 43.71 24.63 42.28 25.47 40.77 26.20
        C 34.82 29.18 28.92 32.07 22.68 34.52
        C 16.45 36.99 9.87 38.64 3.24 39.26
        C 2.54 39.32 1.93 38.82 1.86 38.12
        C 1.80 37.50 2.21 36.94 2.80 36.788
        Z
      "
  />
</svg>
