<svg xmlns="http://www.w3.org/2000/svg" viewBox="780 2240 2460 1110">
  <path
    d="M1257.05,2486.02c-38.2-38.9-143.87-98.43-155.09-219.2c-0.26-12.23-10.25-22.07-22.54-22.07h0 c-12.45,0-22.55,10.1-22.55,22.55v838.53c-38.15-28.12-95.44-37.04-152.16-19.13c-84.85,26.8-136.28,103.48-114.87,171.27 c21.41,67.79,107.55,101.03,192.4,74.23c71.66-22.63,119.49-80.85,119.72-139.24h0V2495c14.67,3.46,193.84,48.57,193.84,188.94 c0,91.49-35.58,139.35-56.59,174.76c-5.21,8.78-2.67,20.11,5.79,25.84c8.1,5.5,19.05,4.08,25.45-3.33 c25.68-29.72,84.79-109.03,84.79-209.38C1355.25,2571.9,1297.76,2527.48,1257.05,2486.02z"
  ></path>
</svg>
