<svg xmlns="http://www.w3.org/2000/svg" viewBox="-50 -50 100 100">
  <defs>
    <path
      id="hole"
      d="
        M -10 0
        C -3 -3 -3 -20 -3 -30
        C -3 -50 25 -50 25 -30
        A 4 4 0 1 1 20 -34
        C 19 -43 3 -44 3 -30
        C 3 -20 3 -3 10 0
      "
    />

    <path
      id="string"
      d="
        M 0 50
        C -1.75 30 -1.75 -30 0 -50
        C 1.75 -30 1.75 30 0 50
      "
    />
  </defs>

  <use href="#hole" transform="translate(-32, 5.1) scale(0.65, 0.65)" />
  <use href="#hole" transform="translate(-32, 5) scale(-0.65, -0.65)" />
  <use href="#hole" transform="translate(32, 5.1) scale(-0.65, 0.65)" />
  <use href="#hole" transform="translate(32, 5) scale(0.65, -0.65)" />

  <use href="#string" transform="translate(-9, 0)" />
  <use href="#string" transform="translate(-3, 0)" />
  <use href="#string" transform="translate(3, 0)" />
  <use href="#string" transform="translate(9, 0)" />
</svg>
