<svg xmlns="http://www.w3.org/2000/svg" viewBox="0 0 19 19">
  <path
    style="--length: 42"
    fill="none"
    stroke="currentColor"
    stroke-linecap="round"
    stroke-linejoin="round"
    d="m2.32 16.096 2.075-2.906 1.661 1.66-2.906 2.076m10.453-9.892c.803 1.269.958 2.947-.074 4.495-2.906-.415-4.982 1.66-3.737 4.567-2.49 3.32-5.812 2.49-7.472.83-1.661-1.66-2.491-4.982.83-7.473 2.906 1.245 4.982-.83 4.567-3.736 1.548-1.032 3.226-.877 4.494-.075m1.392 1.392 4.493-5.054-.83-.83-5.055 4.492m1.392 1.392-2.15 2.42-1.66-1.662 2.418-2.15m3.394-4.492 2.49 2.49M14.36 2.396l2.491 2.491"
  />
</svg>
