<svg xmlns="http://www.w3.org/2000/svg" viewBox="0 0 19 19">
  <path
    style="--length: 52"
    fill="none"
    stroke="currentColor"
    stroke-linecap="round"
    stroke-linejoin="round"
    d="m4.458 10.916 5.34 5.34M6.102 9.273l5.341 5.341M7.745 7.63l5.34 5.341M.76 16.257l1.233 1.232c.137.137.493.329.822 0 .328-.328.137-.684 0-.822l9.449-9.449c.685-.684 2.465-1.643 4.93-.821 1.233.41.822-.822.822-.822l-4.93-4.93s-1.233-.411-.822.821c.822 2.466-.41 3.698-1.233 4.52l-9.449 9.449c-.137-.137-.493-.329-.822 0-.328.329-.137.685 0 .822Zm4.93-2.465c-.41.41-.821 1.643 0 2.465.822.821 2.055.41 2.465 0l4.93-4.93c.411-.411.822-1.644 0-2.465-.821-.822-2.054-.411-2.465 0l-4.93 4.93Z"
  />
</svg>
