<svg xmlns="http://www.w3.org/2000/svg" viewBox="0 0 100 100">
  <path
    transform="translate(50 50) scale(1.05) translate(-50 -50)"
    d="M93.5,60.456c-6.26,0-9.593-7.822-13.121-16.103c-3.756-8.813-7.639-17.926-15.88-17.926  c-8.173,0-12.041,11.287-15.705,22.432c-3.364,1.306-6.755,2.477-13.297,2.477c-6.619,0-9.926-3.374-13.427-6.946  c-3.781-3.857-7.69-7.846-15.57-7.846c-0.828,0-1.5,0.671-1.5,1.5s0.672,1.5,1.5,1.5c6.258,0,9.591,7.822,13.119,16.103  c3.755,8.813,7.638,17.926,15.878,17.926c8.173,0,12.041-11.287,15.705-22.432c3.364-1.306,6.755-2.477,13.297-2.477  c6.62,0,9.927,3.374,13.429,6.946c3.781,3.857,7.691,7.846,15.572,7.846c0.828,0,1.5-0.671,1.5-1.5S94.328,60.456,93.5,60.456z   M64.499,29.428c4.314,0,7.238,3.717,9.794,8.738c-2.511-2.855-5.583-4.81-9.794-4.81c-3.162,0-5.68,1.219-7.801,3.158  C58.822,32.305,61.304,29.428,64.499,29.428z M74.514,43.521c-2.567-2.367-5.726-4.06-10.015-4.06c-3.441,0-6.156,0.953-8.424,2.395  c2.236-3.269,4.851-5.501,8.424-5.501C68.964,36.355,71.927,39.422,74.514,43.521z M45.248,53.211  c-2.495,2.502-5.408,4.328-9.751,4.328c-5.251,0-8.416-3.159-11.295-7.06c2.805,2.204,6.227,3.857,11.295,3.857  C39.693,54.336,42.736,53.872,45.248,53.211z M43.921,58.144c-2.236,3.269-4.851,5.501-8.424,5.501  c-4.464,0-7.426-3.066-10.013-7.164c2.567,2.366,5.725,4.059,10.013,4.059C38.938,60.539,41.653,59.586,43.921,58.144z   M35.497,70.572c-4.313,0-7.236-3.716-9.792-8.737c2.51,2.855,5.582,4.809,9.792,4.809c3.162,0,5.68-1.219,7.801-3.158  C41.174,67.695,38.692,70.572,35.497,70.572z M54.748,46.789c2.495-2.502,5.408-4.328,9.751-4.328c5.252,0,8.418,3.159,11.297,7.061  c-2.806-2.204-6.228-3.857-11.297-3.857C60.303,45.664,57.26,46.128,54.748,46.789z"
  />
</svg>
