<svg xmlns="http://www.w3.org/2000/svg" viewBox="0 0 19 19">
  <path
    style="--length: 36"
    fill="none"
    stroke="currentColor"
    stroke-linecap="round"
    stroke-linejoin="round"
    d="M8.348 8.642C7.106 7.401 7.789 5.6 7.789 5.6c-1.656.828-1.656.828-2.07 2.07-.62 1.862-1.656 1.655-2.898 2.07-2.99.996-2.897 4.553-.827 6.623 2.07 2.07 4.967 2.484 6.209-.414.269-.628.414-1.242.828-1.656.414-.414 2.07-1.242 2.07-2.07-.414.414-1.904.58-2.898-.414m5.796-8.28.413-1.24 3.312-.829.828.828-2.07 2.07-1.242.414-8.279 8.28-1.656-1.657L14 3.53Z"
  />
</svg>
