<svg xmlns="http://www.w3.org/2000/svg" viewBox="0 0 1000 1000">
  <style>
    #mask {
      stroke-dasharray: 1 1;
      animation: stroke 1s both ease-in-out;
    }

    @keyframes stroke {
      0% {
        stroke-dashoffset: 1;
      }
      20% {
        stroke-dashoffset: 0.84;
      }
      40% {
        stroke-dashoffset: 0.61;
      }
      60% {
        stroke-dashoffset: 0.29;
      }
      80% {
        stroke-dashoffset: 0.08;
      }
      100% {
        stroke-dashoffset: 0;
      }
    }
  </style>
  <mask id="mask">
    <path
      fill="none"
      stroke="white"
      stroke-width="60"
      pathLength="1"
      d="M37.34,427.27c223.23-155.34,398.16-255.72,434.57-217.29,66.17,69.82-357.04,565.77-325.93,591.5,18.33,15.16,171.66-151.86,452.68-380.25,53.92-43.83,299.88-243.73,325.93-217.29,34.41,34.92-372.13,406.64-289.72,543.22,36.3,60.16,155.6,55.03,247.47,42.25"
    />
  </mask>
  <g mask="url(#mask)" fill="currentColor">
    <path
      d="M111.46,355.34c2.56-1.6,5.08-3.18,7.57-4.73-4.66,3.3-11.72,8.02-19.81,13.35,39.49-25.29,85.07-54.85,129.98-82.47,44.9-27.65,89.18-53.23,125.9-71.09,13.4-6.09,26.37-11.52,36.52-15.41,10.11-3.93,17.44-6.32,18.75-7.15.65-.39-.29-.38-2.48.08-1.09.23-2.53.54-4.22.98-1.68.45-3.66.98-5.86,1.63-4.39,1.32-9.73,3.06-15.65,5.25-5.92,2.2-12.47,4.81-19.35,7.79-6.08,2.56-13.09,5.68-17.42,7.59-38.96,16.93-83.9,41.27-132,70.02,9.32-5.43,19.09-11.06,28.52-16.38-14.04,8.12-27.8,16.25-43.11,25.77,1.68-.87,3.84-2,5.53-2.88-23.96,14.18-51.78,31.83-77.35,48.92-25.58,17.08-48.95,33.53-64.28,45.02-15.39,11.53-19.95,15.87-14.91,13.49,5.05-2.37,19.69-11.48,42.94-26.51l20.71-13.26Z"
    />
    <path
      d="M200.89,303.25c-28.42,17.14-55.42,34-82.29,51.15l-5.4,3.25,2.49-.09.48-.42c24.2-17.49,65.12-44.84,103.72-68.84l13.75-8.59c6.56-4.17,10.89-7.02,12.13-8.09,2.95-2.47-9.6,4.21-27.72,15.21-6.96,4.23-13.9,8.49-20.81,12.78-25.4,15.44-57.56,36.08-86.46,55.62-28.92,19.52-54.62,37.87-67.57,48.18-5.83,4.65-.1,1.48,1.56,1.06-1.35,2,17.37-10.09,41.89-26.64,24.56-16.59,45.45-31.15,46.68-33,4.22-2.7,8.59-5.5,12.78-8.18-3.21,2.23-6.5,4.51-9.77,6.78,6.57-5.25,29.09-20.18,45.87-31.29,8.45-5.46,16.92-10.88,25.44-16.25l-15.54,7.32-13.14,8.64c1.06-.57,3.07-1.7,2.91-1.59-24.93,16.52-48.13,32.37-75.09,50.85-11.25,7.83-22.46,15.71-33.63,23.64-8.98,6.6-7.77,6.46,2.49-.11l15.32-9.88c-2.33,1.47-4.65,2.94-6.96,4.41,35.01-23.22,72.15-47.44,107.61-69.26,5.6-3.44,12.36-7.75,15.19-9.76,2.41-1.72-.14-.44-5.95,3.1Z"
    />
    <path
      d="M76.97,384.91c-5.71,3.7-11.21,7.26-19.18,12.79-1.87,1.4-2.83,2.11-3.32,2.48,3.01-1.96,7.09-4.6,11.16-7.24,8.02-5.2,11.98-8.11,11.34-8.02Z"
    />
    <path
      d="M54.47,400.18c-2.79,1.82-4.65,3.03-4.65,3.03,1.09-.67,2.15-1.32,3.16-1.95.86-.61.89-.63.89-.63,0,0,.03-.02.6-.45Z"
    />
    <path
      d="M650.17,358.98c25.56-20.11,51.34-40.02,77.45-59.61,26.13-19.57,52.55-38.84,79.72-57.36,13.6-9.25,27.39-18.31,41.63-26.97,3.56-2.16,7.16-4.3,10.8-6.39l2.85-1.63,4.33-2.42c2.9-1.58,5.8-3.14,8.71-4.62,5.82-2.96,11.67-5.67,17.34-7.83,5.67-2.17,11.11-3.68,16.07-4.46,4.97-.76,9.45-.84,13.67-.26,2.11.31,4.17.79,6.22,1.56,1.03.38,2.05.86,3.07,1.44,1.02.58,1.99,1.34,2.98,2.15.5.4.92.89,1.32,1.4.42.49.81,1,1.18,1.52.4.51.68,1.04,1.03,1.56.26.54.54,1.08.75,1.62.89,2.15,1.33,4.26,1.59,6.36.46,4.19.17,8.45-.81,13.15-.96,4.66-2.72,9.76-5.23,15.1-2.49,5.34-5.66,10.87-9.07,16.35-1.7,2.75-3.51,5.48-5.31,8.21l-2.78,4.07-1.39,2.03-1.27,1.8c-2.41,3.42-4.84,6.8-7.29,10.14-2.63,3.59-4.78,6.63-4.81,6.88-.04.24,2.11-2.45,4.54-5.77,2.46-3.34,4.9-6.72,7.31-10.13l2.35-3.35,2.81-4.11c.95-1.37,1.84-2.76,2.75-4.14.92-1.38,1.82-2.76,2.68-4.15,3.5-5.54,6.8-11.14,9.39-16.56,2.61-5.42,4.53-10.63,5.61-15.4,1.05-4.77,1.43-9.1,1.06-13.31-.2-2.1-.54-4.2-1.32-6.34-.42-1.06-.83-2.17-1.51-3.22-.62-1.06-1.5-2.05-2.27-3.08-1.85-1.85-3.9-3.26-5.95-4.14-2.06-.92-4.1-1.5-6.2-1.88-4.18-.77-8.59-.83-13.5-.22-9.77,1.13-21.7,5.78-33.42,11.69-1.47.73-2.94,1.48-4.41,2.26-1.47.76-2.93,1.55-4.39,2.35-1.47.78-2.92,1.6-4.37,2.42l-3.47,1.96c-3.64,2.09-7.24,4.21-10.81,6.37-14.25,8.62-28.02,17.65-41.61,26.87-27.14,18.46-53.51,37.67-79.6,57.19-26.07,19.53-51.82,39.41-77.39,59.51-3.43,2.71-6.21,5.03-6.6,5.5-.09.23,2.38-1.59,5.58-4.11Z"
    />
    <path
      d="M646.93,756.74c-2.11-2.04-2.14-1.89-.08.38.45.48.98,1.06,1.56,1.68.58.63,1.21,1.3,1.94,1.9,1.41,1.23,2.86,2.48,3.99,3.41,2.06,1.42,2.05,1.26.02-.4-1.11-1.04-2.55-2.33-3.95-3.55-.73-.58-1.31-1.28-1.91-1.86-.59-.59-1.13-1.12-1.56-1.55Z"
    />
    <path
      d="M623.7,738.09c-1.81-4.57-3.2-9.24-4.17-13.88-.97-4.64-1.57-9.25-1.9-13.76-.65-9.03-.17-17.63.73-25.62.2-1.49.42-3.06.66-4.57.28-1.5.56-2.95.79-4.19-.2.52-.19-.11.06-1.71.12-.8.3-1.84.52-3.1.26-1.25.57-2.72.92-4.38,3.74-16.32,9.3-32.15,15.83-47.59,6.54-15.44,14.03-30.53,22.13-45.34,16.22-29.63,34.71-58.27,54.21-86.39,39.04-56.22,82.28-110.3,124.6-164,.44-.81,1.45-2.33,3.23-4.81,5.48-7.71,17.11-22.72,29.12-38.18,3.03-3.88,6.04-7.77,9.02-11.67,4.48-5.93,8.9-11.87,13.16-17.87l2.08-2.94,1.73-2.51c1.15-1.68,2.27-3.39,3.36-5.13,2.16-3.48,4.26-7.06,5.75-10.94.37-.97.68-1.96.89-2.98.21-1.01.33-2.07.17-3.09-.15-1.02-.66-2.01-1.5-2.62-.83-.62-1.87-.85-2.88-.93-2.05-.11-4.07.32-6.04.86-1.97.56-3.9,1.27-5.8,2.05-3.81,1.57-7.52,3.43-11.21,5.39l-2.76,1.5-4.07,2.31c-3.17,1.82-6.33,3.68-9.48,5.58-6.29,3.79-12.55,7.71-18.76,11.7-10.01,6.78-21.58,14.78-34.11,23.61-20.85,14.98-41.46,30.47-62.03,46.29-20.57,15.83-41.11,32-61.76,48.49,2.7-1.95,4.39-3.05,4.48-2.89-.54.97-9.98,8.77-21.18,17.63-5.64,4.5-11.26,8.98-16.89,13.47,16.22-12.82,32.55-25.57,48.89-38.13,2.36-1.82,4.55-3.49,6.55-4.99,17.92-13.86,36.11-27.74,54.74-41.64,20.32-15.15,40.66-29.94,61.12-44.07,10.23-7.06,20.5-13.95,30.83-20.54,5.16-3.3,10.34-6.52,15.54-9.64l3.9-2.31,3.32-1.93c1.17-.68,2.35-1.35,3.55-2,2.39-1.31,4.83-2.57,7.35-3.69,2.53-1.1,5.13-2.14,7.89-2.63,1.36-.21,2.84-.32,4.12.25.63.28,1.17.78,1.47,1.4.31.62.4,1.31.39,1.99,0,1.36-.4,2.68-.84,3.97-.45,1.28-1.01,2.53-1.61,3.76-1.21,2.46-2.61,4.83-4.08,7.2-.74,1.18-1.49,2.35-2.26,3.52l-1.17,1.75-1.95,2.83c-6.83,9.78-14,19.45-21.26,29.06-14.56,19.21-29.51,38.17-44.4,57.12-14.9,18.95-29.77,37.87-44.43,56.9-29.31,38.08-57.91,76.56-84.31,116.63-1.71,2.65-4.43,6.74-6.07,9.03-1.11,1.51-1.05,1.14.84-1.83,16.26-25.54,32.82-49.59,49.64-73.07,16.82-23.48,33.91-46.39,51.47-69.49,17.55-23.1,35.61-46.38,54.19-70.63,9.28-12.13,18.68-24.51,28.01-37.27,4.66-6.38,9.3-12.86,13.82-19.44l.84-1.23.27-.42.51-.81c.33-.53.67-1.07,1-1.61.65-1.07,1.29-2.14,1.88-3.22.7-1.29,1.36-2.57,1.88-3.87.51-1.3.98-2.65.85-4.03-.07-.68-.45-1.38-1.13-1.69-.67-.32-1.46-.3-2.19-.22-1.48.2-2.88.72-4.21,1.28-2.66,1.14-5.08,2.52-7.35,3.89l-.84.52-2.6,1.54-6.23,3.76c-4.15,2.54-8.28,5.15-12.4,7.8-16.49,10.64-32.77,21.98-48.92,33.6-16.15,11.63-32.17,23.56-48.12,35.68-63.75,48.56-126.45,99.82-189.67,152.69-66.39,54.93-128.96,109.41-191.02,165.2-31.05,27.89-61.94,56.12-93.37,84.79-7.88,7.17-15.78,14.35-23.72,21.57-3.99,3.6-7.99,7.22-12,10.84-2.01,1.81-4.03,3.62-6.04,5.43-3.32,2.95-6.64,5.9-9.97,8.85-7.82,6.9-15.72,13.78-23.6,20.41-7.87,6.61-15.79,13.09-23.33,18.65-3.8,2.85-7.44,5.33-10.95,7.6-3.51,2.25-6.76,4.05-9.82,5.55-6.07,2.91-10.99,4.15-15.16,4.64-2.82.32-5.32.29-7.67.04-2.36-.27-4.56-.74-6.96-1.62-1.2-.48-2.5-.98-3.97-1.93-.73-.48-1.58-1.05-2.5-1.69-.23-.15-.45-.35-.67-.52-.15-.27-.38-.43-.56-.65l-1.11-1.2c-1.37-1.53-2.42-2.62-3.19-3.78-.76-1.18-1.32-2.27-1.83-3.38-.98-2.21-1.71-4.4-2.19-6.87-.48-2.47-.77-5.11-.67-8.24,0-.75.12-1.63.17-2.44l.1-1.24.22-1.36c.16-.92.26-1.79.47-2.76l.73-3.01c.19-.96.61-2.12.95-3.22l.53-1.66c.19-.56.32-1.08.59-1.71l1.42-3.62c.25-.61.45-1.19.74-1.83l.88-1.94c4.58-10.28,11.17-22.02,18.35-33.89,7.21-11.91,15.04-24.02,22.95-36,2.33-3.5,4.65-7,6.97-10.49,2.06-3.06,4.11-6.12,6.16-9.18,4.13-6.08,8.26-12.15,12.38-18.21,33.11-48.29,66.49-95.34,99.06-142.61,16.29-23.62,32.4-47.27,48.17-71.05,15.77-23.79,31.22-47.71,46.01-71.92,7.38-12.11,14.61-24.28,21.55-36.54,6.95-12.26,13.63-24.61,19.81-37.03,6.17-12.41,11.89-24.94,16.52-37.32,2.29-6.18,4.28-12.31,5.8-18.19.73-2.93,1.33-5.78,1.78-8.49.41-2.68.66-5.21.7-7.36,0-.6.03-1.22-.03-1.71l-.03-.79c-.01-.26-.06-.45-.08-.68l-.06-.65c-.04-.17-.08-.34-.1-.52-.03-.17-.04-.37-.09-.47l-.05-.16s0,0,0,0c.02,0,0,0,0,0,0,0-.05.04,0,0-.05.06.02-.01,0,0h0s.01-.03,0,.01c0,.02,0,.01,0-.01,0,0,.02-.02-.01-.02l-.11-.02-.23-.05c-1.37-.38-3.98-.7-7.03-.61-3.06.07-6.54.45-10.09,1.03-3.55.55-7.25,1.39-10.9,2.28-7.34,1.84-14.6,4.11-21.51,6.5-6.92,2.39-13.5,4.9-19.62,7.32-12.25,4.85-22.68,9.39-30.65,12.76-7.98,3.38-13.51,5.65-16.01,6.28-3.21.8-.72-1.4,6.49-5.82,7.21-4.4,19.15-11.07,34.9-18.5-6.36,2.77-12.61,5.61-18.89,8.58-9.97,4.63-19.88,9.52-29.74,14.57-28,14.34-51.65,27.49-66.77,35.4-6.91,3.69-13.81,7.4-20.69,11.17-13.89,7.24-31.8,17.26-49.02,27.11-17.23,9.83-33.76,19.48-45.07,25.64l4.37-3.84-5.2,3.14c-17.08,10.54-28.73,17.44-33.05,19.34l1.06-1.89c2.87-3.28,10.62-9.75,23.53-19.47-.7-.04.69-1.44,3.99-4.07-12.05,6.73-18.05,9.49-9.61,2.49-7.07,4.34-6.16,3.22,1.94-2.44,2.8-1.94,6.2-4.24,9.69-6.56-.06.03-.09.05-.09.05-3.94,2.28-5.11,2.97-10.4,6.11-6.92,4.48-10.92,7.06-10.92,7.06q-18.33,12.03-34.14,22.53c-13.72,8.89-22.31,14.21-22.31,14.21q-15.9,8.79-14.02,6.6c.84-.66,1.78-1.39,2.77-2.17-12.06,8.02-12.9,8.58-16.16,10.74-3.43,2.22-5.82,3.69-5.82,3.69q-.75.02-2.87,1.32c-.74.32-.68.1-.68.1q6.39-4.99,6.49-5.22c1.51-1.19,3.61-2.78,3.61-2.78,7.72-5.49,10.79-7.68,12.09-8.61,17.34-10.63,17.4-10.67,17.4-10.67l3.45-2.79,4.19-2.27-2.47,1.14,8.65-5.56-9.92,6.29q20.19-13.55,28.27-18.98c8.43-5.6,15.58-10.49,16.43-11.07-.78.35-.88.3-.88.3q21.77-14.25,43.13-27.92c2.04-1.18,3.65-2.11,5.16-2.98,1.98-1.43,6.03-4.11,10.26-6.78,3.77-2.37,7.52-4.73,11.27-7.09.83-.55,1.63-1.08,2.38-1.58-.01-.02-.05-.01-.05-.01,3.79-2.48,6.41-4.2,9.41-6.17,1.89-1.24,1.94-1.28,1.94-1.28.01,0,.09-.05.12-.07,6.51-4.21,15.84-10.42,41.06-26.21,6.81-4.01,13.17-7.69,19.23-11.11-1.97,1.07-3.86,2.1-5.69,3.09-3.65,1.99-.58-.27-2.55.85-48.49,27.62-99.65,60.17-149.45,93.07-8.87,6-17.31,11.45-18.79,12.07-1.33.51,4.83-4.02,13.91-10.18,24.81-17.32,51.31-35.26,78.98-53.18,27.67-17.92,56.48-35.83,86.03-52.92,29.57-17.07,59.81-33.4,90.89-47.4,15.57-6.96,31.33-13.36,47.73-18.43,8.21-2.52,16.59-4.72,25.39-6.2,2.18-.4,4.45-.67,6.68-.97,2.3-.22,4.55-.49,6.93-.57,4.7-.23,9.56-.22,14.76.53,1.06.13,2.17.36,3.26.54.55.11,1.08.18,1.64.32l1.69.43c1.12.29,2.27.58,3.55,1.06,1.23.46,2.5.85,3.68,1.43,4.83,2.1,9.26,5.14,12.91,8.98,3.66,3.93,6.46,8.64,8.29,13.71.43,1.28.91,2.54,1.21,3.86l.45,1.87c.15.6.27,1.18.36,1.75.18,1.14.42,2.32.53,3.43.11,1.11.24,2.24.32,3.34.5,8.73-.56,16.49-2.03,23.83-3.07,14.62-7.95,27.75-13.26,40.53.7-1.49,1.37-3.01,2.04-4.49-3.4,8.28-7.07,16.31-10.91,24.17-.41.86-.83,1.72-1.23,2.56,3.09-5.89,6.08-11.85,8.93-17.91,1.88-4.24,3.72-8.51,5.47-12.96,2.27-5.91,4.38-11.9,6.22-18.07,1.83-6.19,3.45-12.51,4.51-19.26,1.04-6.75,1.66-13.89.74-21.9-.1-.99-.3-2.04-.46-3.05-.15-1.01-.39-2.06-.66-3.13l-.44-1.75c-.17-.58-.36-1.14-.55-1.71-.39-1.13-.74-2.28-1.24-3.37-1.82-4.43-4.42-8.52-7.66-12.02-3.61-3.81-7.99-6.87-12.77-9.02-1.18-.59-2.42-1.02-3.65-1.47l-1.86-.65c-.59-.18-1.15-.32-1.72-.47-2.27-.65-4.4-1.01-6.57-1.39-4.21-.57-8.28-.81-12.11-.72-1.95,0-3.78.16-5.67.25-1.81.18-3.67.32-5.44.55-7.14.89-13.87,2.31-20.39,3.96-6.52,1.67-12.85,3.57-19.03,5.66-12.37,4.17-24.3,8.95-36.05,14.06-11.76,5.12-23.32,10.61-34.87,16.34-18.06,9.02-34.56,17.77-50.65,26.61-16.09,8.84-31.77,17.78-48.04,27.37-8.34,5.02-14.18,8.36-13.36,7.5.82-.83,8.43-5.76,16.58-10.65,17.99-10.98,36.59-21.98,55.71-32.67,19.13-10.68,38.74-21.07,58.91-30.66,10.1-4.78,20.34-9.36,30.79-13.61,5.23-2.11,10.5-4.16,15.88-6.07,5.35-1.93,10.8-3.71,16.37-5.35,5.55-1.64,11.24-3.1,17.14-4.29,5.9-1.18,12-2.11,18.54-2.48l2.45-.13,2.54-.02c1.66-.04,3.43.05,5.19.14l1.32.07,1.37.14,2.74.31c.91.11,1.89.31,2.83.47.96.19,1.87.31,2.87.59l2.98.78c.48.12,1.04.3,1.6.5l1.66.59c2.22.76,4.31,1.8,6.4,2.85,4.08,2.25,7.78,5.09,10.98,8.4,3.12,3.4,5.69,7.26,7.61,11.41.46,1.05.95,2.08,1.34,3.15.38,1.07.75,2.16,1.1,3.24.18.54.33,1.09.46,1.64l.39,1.6.34,1.47.24,1.42c.71,3.84.86,7.33.93,10.76-.02,3.34-.18,6.57-.53,9.6-.67,6.1-1.82,11.68-3.16,16.99-1.35,5.3-2.9,10.32-4.56,15.14-3.35,9.63-7.09,18.54-10.96,26.97-3.86,8.44-7.87,16.38-11.86,23.95-10.52,21.02-21.76,40.35-31.53,56.05-.17.29-.36.6-.53.89,2.64-4.08,5.1-7.89,7.7-12.01-8.81,14.92-13.98,22.54-22.38,35.84,1.16-1.41,2.57-3.12,3.73-4.53-22.43,36.16-46.8,72.86-71.21,108.47-24.42,35.6-48.9,70.11-71.75,101.67-1.82,2.56-3.52,4.94-5.22,7.32-18.79,27.69-37.78,55.69-60.07,88.55,7.59-11.02,15.09-21.76,22.82-32.75-8.02,11.92-16.01,23.8-24.13,35.89-2.01,3.02-4.03,6.06-6.06,9.11-.95,1.43-1.9,2.87-2.85,4.32l-.71,1.1c-.94,1.46-1.89,2.94-2.86,4.44-1.32,2.05-2.66,4.17-4,6.42-1.31,2.26-2.72,4.62-3.67,7.32-.2.67-.41,1.4-.29,2.09.06.34.26.66.55.78.28.13.59.14.88.11,1.15-.17,2.17-.73,3.17-1.28,1.99-1.13,3.89-2.46,5.83-3.84,1.93-1.38,3.88-2.83,5.88-4.33,1.03-.78,2.04-1.53,3.02-2.27.52-.39,1.03-.78,1.53-1.16.13-.1.26-.19.38-.29.16-.14.12-.06.64-.51.79-.66,1.57-1.32,2.35-1.98,12.41-10.47,23.22-19.57,31.78-26.57,30.04-27.18,60.08-54.51,90.34-81.64,30.25-27.14,60.68-54.1,91.35-80.79,30.67-26.69,61.56-53.12,92.69-79.24,31.13-26.14,62.5-51.9,94.02-77.43,6.51-5.28,12.5-9.85,13.81-10.59.82-.35-3.36,3.28-9.88,8.55-45.09,36.75-90.17,74.26-134.85,112.54-44.7,38.26-89.07,77.27-133.06,116.73,74.01-65.43,149.61-129.92,228.19-193.84,9.99-8.15,20.05-16.35,30.13-24.57,9.99-8.11,19.98-16.03,30-23.87,25.33-20.14,50.53-39.81,75.87-59.06,25.35-19.24,50.82-38.1,76.93-56.39,13.06-9.13,26.29-18.13,39.86-26.84,6.79-4.36,13.67-8.64,20.7-12.81l5.31-3.1,3.54-2.01c1.33-.76,2.67-1.49,4.01-2.22,5.36-2.92,10.8-5.7,16.19-8.12,5.38-2.41,10.7-4.42,15.74-5.83,2.49-.66,4.94-1.23,7.28-1.59,2.33-.36,4.59-.59,6.77-.66,2.18-.07,4.28.02,6.35.28,2.07.26,4.11.71,6.15,1.5,2.04.75,4.09,2.03,5.88,3.8.77.98,1.6,1.94,2.18,2.98.64,1.02,1.01,2.12,1.38,3.16.68,2.11.92,4.19,1.03,6.26.08,2.08.01,4.16-.26,6.32-.22,2.14-.7,4.38-1.23,6.66-.34,1.17-.64,2.33-1.01,3.52-.43,1.21-.78,2.4-1.27,3.64-1.88,4.93-4.45,10.15-7.49,15.44-3.04,5.29-6.45,10.61-9.98,15.88l-2.29,3.37-2.07,3c-1.03,1.47-2.06,2.93-3.08,4.39-2.06,2.91-4.13,5.78-6.21,8.62-4.15,5.68-8.32,11.25-12.5,16.75-8.35,11-16.69,21.7-24.99,32.28-16.6,21.04-32.92,41.73-49.24,62.41-16.22,20.67-32.26,41.4-48.16,62.69-15.89,21.29-31.65,43.14-47.1,66.09-10.83,16.12-21.17,32.27-30.77,48.54-9.61,16.27-18.51,32.67-26.31,49.26-7.75,16.58-14.46,33.4-18.97,50.25-2.26,8.41-3.93,16.82-4.81,25.07-.84,8.24-.91,16.33.21,23.89,1.09,7.57,3.3,14.59,6.72,20.83l1.34,2.31,1.51,2.2c.52.72.94,1.51,1.52,2.19l1.71,2.07c1.06,1.44,2.43,2.67,3.68,3.99l.95.98c.33.32.7.61,1.05.91l2.1,1.82c5.73,4.77,12.53,8.78,19.97,12.08,7.44,3.3,15.5,5.89,23.86,7.95,8.37,2.06,17.05,3.58,25.9,4.72,8.86,1.1,17.9,1.79,27.03,2.2,9.13.43,18.38.49,27.7.34,9.32-.14,18.71-.53,28.16-1.14,20.1-1.3,38.84-3.08,41.28-2.73,1.25.16-1.77.83-7.63,1.67-5.87.86-14.59,1.88-24.71,2.68-19.78,1.64-39.53,2.39-59.07,1.96-19.5-.54-38.86-2.29-57.19-6.47-9.14-2.1-18.01-4.84-26.22-8.44-8.21-3.6-15.74-8.08-22.05-13.54-6.31-5.46-11.43-11.83-14.93-19.16-3.53-7.31-5.54-15.53-6.22-24.21-.69-8.68-.09-17.77,1.34-26.9,1.49-9.14,3.77-18.34,6.66-27.47,5.78-18.27,13.66-36.25,22.56-53.84,8.91-17.6,18.86-34.84,29.39-51.81,10.53-16.97,21.68-33.67,33.19-50.19,23.04-33.04,47.56-65.33,72.67-97.47,25.1-32.16,50.92-64.04,76.41-96.78,6.36-8.2,12.7-16.46,18.94-24.86,3.12-4.2,6.22-8.44,9.29-12.73l2.29-3.23,2.63-3.76,3.2-4.7,3.12-4.73c4.09-6.32,7.89-12.74,10.83-18.93,1.52-3.11,2.68-6.11,3.71-9.05.96-2.91,1.69-5.72,2.19-8.45.48-2.72.73-5.36.67-8-.06-2.64-.47-5.33-1.71-8.05-.68-1.32-1.64-2.59-2.7-3.73-1.16-1.06-2.42-1.92-3.72-2.54-2.61-1.22-5.25-1.72-7.91-1.96-5.32-.43-10.87.16-17.04,1.69-6.15,1.55-12.8,4.08-19.53,7.24-6.72,3.11-13.52,6.79-20.12,10.54-4.68,2.68-9.29,5.41-13.86,8.21-18.25,11.18-35.91,23.08-53.42,35.29-30.18,21.1-59.14,42.67-87.66,64.45.42-.22.81-.41.86-.35.2.27-2.32,2.58-6.71,6.29,32.35-24.76,65.32-49.28,99.39-72.74,11.77-8.26,23.66-16.39,35.81-24.25,6.08-3.93,12.23-7.8,18.47-11.57l4.71-2.8,2.37-1.39,3.1-1.77c4.43-2.5,8.92-4.92,13.42-7.16,8.98-4.46,18.08-8.18,26.15-9.82,4.06-.86,7.88-1.29,11.58-1.24,1.85.03,3.68.18,5.51.53,1.82.37,3.66.89,5.43,1.9.87.5,1.74,1.12,2.53,1.82.76.75,1.42,1.61,2.01,2.48.29.44.52.89.78,1.34.19.47.39.93.56,1.4l.42,1.4.3,1.39c.58,3.71.33,7.3-.31,11.03-.65,3.73-1.74,7.62-3.32,11.72-1.59,4.1-3.66,8.39-6.05,12.74-2.37,4.35-5.14,8.74-7.95,13.11-1.42,2.18-2.87,4.36-4.36,6.52l-2.22,3.24-1.65,2.37c-4.28,6.08-8.65,12.06-13.08,18-8.87,11.86-17.96,23.55-27.16,35.23-18.42,23.35-37.27,46.66-56.23,70.42-26.05,32.62-50.55,63.85-73.53,95.14-22.94,31.3-44.51,62.61-63.64,95.64-11.78,21.08-22.52,42.7-30.64,65-4.05,11.14-7.4,22.46-9.59,33.84-2.18,11.36-3.19,22.82-2.17,33.8.97,10.98,4.1,21.41,9.69,30.32l2.21,3.27.55.82c.19.27.42.51.62.77l1.26,1.53c1.58,2.12,3.54,3.94,5.38,5.87.95.94,2.02,1.77,3.02,2.67l1.52,1.33c.52.43,1.09.81,1.63,1.22l3.28,2.43,3.49,2.21,1.74,1.11,1.84,1,3.67,2,3.83,1.79,1.91.9c.64.29,1.32.54,1.98.81l3.97,1.6c1.32.53,2.71.95,4.06,1.43,1.37.45,2.7.98,4.1,1.37l4.18,1.23c11.17,3.21,22.87,5.27,34.73,6.67,1.9.2,3.83.42,5.46.64,1.63.2,2.97.34,3.65.46,1.37.22-.72.21-4.57-.16-16.38-1.59-32.73-4.33-48.03-9.54-7.64-2.59-15.02-5.77-21.81-9.75-6.78-3.98-12.95-8.77-18.06-14.43-10.33-11.26-15.85-26.22-16.78-42.25-1.02-16.04,1.88-32.77,6.51-49.07-3.36,10.17-4.96,16.32-5.35,15.37-.38-.93.71-9.22,4.29-21.61-4.77,14.86-8.19,30.15-8.83,45.41-.39,9.43.45,16.73.16,16.49-.08-.04-.22-.53-.39-1.38-.14-.86-.3-2.08-.48-3.58-.27-3.01-.5-7.14-.31-11.67.34-7.85,1.37-15.71,2.99-23.48,1.58-7.78,3.71-15.48,6.18-23.09,4.93-15.22,11.29-30.03,18.31-44.52,14.13-28.97,31.01-56.63,48.9-83.59,21.38-32.46,44.36-63.83,67.95-94.77,23.6-30.94,47.91-61.39,72.24-92-7.06,8.24-12.4,14.18-15.17,16.83-.01.01-.02,0-.02,0-7.54,9.48-15.04,18.92-22.53,28.33-33.96,43.49-67.68,87.62-98.6,133.91-15.42,23.16-30.16,46.85-43.26,71.44-6.54,12.29-12.68,24.81-18.11,37.6-5.41,12.8-10.18,25.87-13.65,39.24-3.44,13.35-5.69,27.03-5.39,40.6,0,1.7.15,3.38.23,5.07.18,1.67.26,3.37.52,5.03.38,3.35,1.07,6.63,1.85,9.87.83,3.23,1.87,6.4,3.1,9.48,1.3,3.05,2.7,6.06,4.41,8.9,3.45,5.66,7.64,10.84,12.5,15.42,4.87,4.57,10.46,8.4,16.31,11.8l4.46,2.44,4.63,2.18c1.52.77,3.13,1.36,4.71,2.01,1.6.62,3.15,1.34,4.79,1.86l4.87,1.69c1.63.55,3.3,1,4.95,1.5,3.28,1.05,6.68,1.78,10.03,2.66,13.52,3.11,27.4,4.95,41.36,6.04,13.98,1.01,28.06,1.27,42.15,1,14.09-.26,28.2-1.08,42.3-2.26,14.1-1.18,28.18-2.73,42.25-4.56,2.2-.3,4.22-.55,5.69-.7s2.41-.22,2.46-.16c.1.12-3.29.69-7.26,1.21-33.97,4.41-68.12,7.38-102.14,7-8.5-.11-16.98-.48-25.43-1.07-8.44-.67-16.85-1.59-25.18-2.88-16.59-2.74-33.06-6.8-47.97-13.99.1.05.14.07.24.12,2.38,1.21,2.77,1.56.08.39-2.39-.92-6.93-3.48-9.17-4.84-2.52-1.72-2.2-1.69-.08-.42-6.59-3.9-12.59-8.65-17.76-14.13-1.37-1.31-2.51-2.8-3.7-4.26-.59-.73-1.2-1.45-1.77-2.2l-1.57-2.34c-2.2-3.05-3.94-6.39-5.52-9.79-1.58-3.41-2.81-6.98-3.81-10.62-1.01-3.64-1.75-7.37-2.22-11.14-.49-3.77-.76-7.59-.79-11.42-.06-1.91.03-3.84.06-5.75.12-1.92.17-3.84.37-5.76.63-7.69,1.96-15.34,3.72-22.92,1.74-7.58,3.98-15.06,6.49-22.46,5.04-14.79,11.3-29.2,18.19-43.28,13.83-28.16,30.11-55.07,47.29-81.25,17.21-26.18,35.42-51.62,54.03-76.63-17.42,23.15-34.43,46.61-50.57,70.63-16.13,24.02-31.47,48.59-44.99,74.1-6.75,12.75-13.03,25.75-18.51,39.06-5.48,13.3-10.16,26.93-13.37,40.87-1.61,6.97-2.83,14.01-3.48,21.09-.37,3.54-.49,7.09-.57,10.63.03,3.54.09,7.08.47,10.59.34,3.51.85,7,1.63,10.42.34,1.72.83,3.41,1.28,5.1.25.84.53,1.67.79,2.5.25.84.55,1.66.87,2.48,1.18,3.3,2.68,6.46,4.35,9.53l1.3,2.28,1.45,2.18c.99,1.44,1.87,2.96,3.02,4.28l2.92,3.52,3.22,3.26c.55.53,1.05,1.11,1.64,1.6l1.75,1.49,1.74,1.49c.58.5,1.15,1,1.79,1.44l3.73,2.71c.61.47,1.26.88,1.92,1.28l1.97,1.22c2.57,1.71,5.39,3.07,8.13,4.57,1.51.77,3.31,1.58,4.84,2.35.77.38,1.48.74,2.07,1.04.61.27,1.1.5,1.4.66.85.44-1.56-.3-4.72-1.83-3.22-1.38-6.21-3.08-9.28-4.71,9.26,5.42,18.17,9.03,24.59,11.37,3.21,1.2,5.82,2.02,7.56,2.72,1.74.67,2.67,1.01,2.54,1.17-.33.09-1.74-.06-3.96-.6-2.22-.53-5.33-1.23-8.98-2.46-7.32-2.32-17.1-6.19-26.66-12.43-6.39-4.16-12.32-9.06-17.4-14.76l-3.61-4.44c-1.14-1.53-2.15-3.15-3.23-4.73-2.07-3.2-3.86-6.59-5.34-10.11-3.01-7.02-4.87-14.49-5.79-22.06-.45-3.78-.73-7.59-.74-11.4-.06-1.91.04-3.81.07-5.71.11-1.9.17-3.81.36-5.7.63-7.59,1.87-15.13,3.57-22.55,1.69-7.42,3.79-14.75,6.2-21.96,4.84-14.43,10.83-28.45,17.44-42.14,2.84-5.94,5.78-11.83,8.83-17.65,3.03-5.92,6.13-11.73,9.32-17.53-11.78,20.51-22.66,41.6-31.35,63.64-4.33,11.02-8.07,22.29-10.86,33.81-2.77,11.52-4.57,23.34-4.56,35.26.02,11.88,1.88,23.94,6.68,34.95,4.65,11.08,12.39,20.68,21.53,28.34,9.27,7.58,19.94,13.18,30.98,17.49,11.09,4.24,22.61,7.15,34.22,9.28,2,.34,3.91.74,5.68,1,1.77.29,3.37.55,4.74.78,2.72.5,4.47.77,4.54.9.09.11-1.52.1-4.14-.22-2.62-.31-6.28-.72-10.3-1.48-10.28-1.76-20.51-4.14-30.49-7.51-9.96-3.37-19.69-7.74-28.63-13.58-.56-.36-1.13-.71-1.68-1.08l-1.61-1.19-3.23-2.39c-1.09-.78-2.05-1.73-3.08-2.59-1-.89-2.05-1.74-3.02-2.67-3.81-3.79-7.48-7.79-10.45-12.32-6.26-8.85-10.18-19.24-12.17-29.8-1.99-10.6-2.07-21.41-1.03-32,1.1-10.59,3.26-21.01,6.12-31.19,5.73-20.37,13.99-39.84,23.26-58.7,9.3-18.87,19.74-37.14,30.76-55.03,11.04-17.88,22.67-35.39,34.7-52.63,24.04-34.48,49.55-67.94,75.5-101.05,16.69-22.01,33.61-43.88,50.51-65.9,8.45-11.01,16.89-22.06,25.25-33.21,8.35-11.15,16.62-22.4,24.57-33.85-4.11,5.68-8.38,11.39-12.69,17.08-13.72,18.09-27.63,35.62-41.31,52.91-13.7,17.29-27.22,34.33-40.48,51.29-26.51,33.92-52.01,67.51-76.1,101.95-12.03,17.22-23.73,34.65-34.9,52.5-11.16,17.85-21.85,36.1-31.6,55.06-9.73,18.96-18.65,38.62-25.4,59.46-3.36,10.41-6.13,21.14-7.92,32.18-1.74,11.04-2.46,22.44-1.25,33.93.52,4.59,1.17,8.4,1.17,9.03,0,.26-.22-.38-.48-1.67-.13-.65-.29-1.45-.47-2.39-.16-.94-.29-2.01-.45-3.18-1.41-11.25-.89-22.41.62-33.2,1.51-10.81,4.1-21.27,7.19-31.44,6.27-20.34,14.67-39.55,23.98-58.16,9.33-18.61,19.65-36.63,30.62-54.43,10.98-17.81,22.65-35.4,34.93-53.06,40.77-58.48,83.1-111.31,123.56-163.31-41.91,52.72-83.29,104.46-121.38,158.6-19.01,27.09-37.27,54.75-53.82,83.69-8.26,14.48-16.07,29.28-23.1,44.58-7.03,15.29-13.29,31.09-17.99,47.6-1.63,5.77-3.06,11.67-3.96,15.41,0,.33-.2,1.55-.51,3.37-.71,4.27-1.31,8.67-1.74,13.18-.39,4.52-.61,9.15-.58,13.87.11,9.42,1.32,19.24,4.29,28.78,1.12,3.65,2.91,8.14,3.65,10.05.35.94.27.88-.13.11-.2-.39-.48-.96-.81-1.68-.17-.36-.35-.76-.55-1.18-.18-.44-.36-.91-.56-1.4ZM432.59,195.08c-1.39.16-2.49.34-3.54.47,3.77-.66,7.92-1.14,12.6-1.43l2.26-.02c.56-.01,1.27,0,2.17.05.9.05,1.95.05,3.26.17,1.31.14,2.8.21,4.61.53,1.78.25,3.84.67,6.19,1.3,0,0-.22-.06-.64-.18-.42-.09-1.03-.22-1.81-.39-.78-.17-1.73-.38-2.8-.51-1.07-.14-2.31-.36-3.61-.44-5.26-.51-12.1-.33-18.68.45ZM245.12,285.8s.03-.02.1-.06c-4.89,2.58-8.42,4.44-8.42,4.44,3.42-1.8,6.09-3.21,8.32-4.38ZM428.58,547.52c-53.65,46.57-106.08,93.44-158.42,139.98,12.68-11.52,25.3-22.99,37.96-34.49,39.68-35.38,79.75-70.62,120.46-105.49ZM300.8,245.49c8.39-4.28,15.94-7.96,22.99-11.25,7.04-3.3,13.58-6.21,19.98-8.95,11.13-5.53,22.97-10.99,35.27-15.98,15.15-6.09,30.49-11.54,46.79-14.91,2.03-.44,4.11-.76,6.18-1.13,2.1-.29,4.17-.62,6.32-.81,4.25-.44,8.62-.65,13.16-.37,1.12.03,2.28.18,3.43.3.58.07,1.15.12,1.73.2l1.76.31,1.75.32,1.78.45,1.8.48,1.89.66c5.03,1.8,9.66,4.66,13.32,8.5,2.85,3.05,4.93,6.47,6.41,10.13-1.08-2.82-.45-1.72.64.82.47,1.3,1.09,2.94,1.47,4.67.45,1.6.66,3.17.9,4.45.79,5.24.71,10.14.34,14.86.52-5.4.54-11.13-.56-17.21-.11-.75-.33-1.52-.51-2.31-.2-.83-.4-1.66-.68-2.47l-.83-2.43-1.03-2.36c-1.47-3.1-3.39-5.99-5.73-8.55-3.14-3.33-7.01-5.97-11.24-7.78-2.1-.89-4.39-1.68-6.38-2.15l-1.53-.39-1.5-.28c-1-.17-2.02-.4-3-.48-7.93-.99-15.32-.45-22.43.54-7.11,1.01-13.96,2.57-20.66,4.41-6.7,1.84-13.25,3.97-19.73,6.27-15.97,5.68-31.99,12.66-47.55,19.99-15.55,7.34-30.61,15.07-44.55,22.44ZM89.08,379.17c-.86.53-1.63,1.01-2.6,1.61l5.25-4.18s-1.16,1.12-2.65,2.56ZM80.84,385.81c1.38-.91,2.77-1.82,4.27-2.82-1.42,1.19-2.82,2.06-4.27,2.82ZM120.2,360.07c-2.39,1.43-3.84,2.3-5.69,3.46,5.66-3.45,5.69-3.46,5.69-3.46ZM156.29,354.26l13.91-12.11-15.35,12.93,1.43-.82Z"
    />
  </g>
</svg>
