<?xml version="1.0" encoding="utf-8"?>
<!-- Generator: Adobe Illustrator 24.1.0, SVG Export Plug-In . SVG Version: 6.00 Build 0)  -->
<svg version="1.1" id="Layer_1" xmlns="http://www.w3.org/2000/svg" xmlns:xlink="http://www.w3.org/1999/xlink" x="0px" y="0px"
	 viewBox="0 0 100 100" enable-background="new 0 0 100 100" xml:space="preserve">
<g>
	<path d="M2.796,36.788c6.307-1.669,12.486-3.451,18.457-5.873c5.981-2.404,11.883-5.34,17.654-8.289
		c1.447-0.705,2.844-1.568,4.514-2.304c0.83-0.363,1.71-0.699,2.664-0.928c0.472-0.122,0.969-0.201,1.468-0.262
		c0.549-0.059,1.124-0.062,1.698,0.007c1.145,0.135,2.348,0.58,3.326,1.417c0.987,0.831,1.625,2.017,1.9,3.137
		c0.293,1.15,0.258,2.309,0.063,3.323c-0.19,1.028-0.527,1.943-0.901,2.797c-1.518,3.387-3.807,6.003-5.731,8.575
		c-2.011,2.607-3.952,5.258-6.03,7.821l-6.168,7.731c-1.033,1.284-2.046,2.586-3.095,3.856l-3.172,3.788l-6.343,7.576
		c-1.037,1.268-2.167,2.511-3.261,3.764c-1.111,1.251-2.18,2.499-3.326,3.753c-1.22,1.245-2.424,2.316-3.405,3.427
		c-0.248,0.276-0.471,0.554-0.687,0.831c-0.099,0.14-0.209,0.278-0.298,0.418l-0.136,0.204l-0.038,0.065
		c-0.017,0.023,0.013,0.017,0.029-0.186c0.002-0.094-0.001-0.26-0.072-0.454c-0.063-0.196-0.21-0.407-0.348-0.537
		c-0.303-0.266-0.459-0.259-0.468-0.27c-0.007,0-0.052-0.004-0.045-0.002c0.013,0.039,0.559-0.262,1.127-0.773l1.942-1.589
		l3.815-3.097c2.541-2.068,5.014-4.214,7.525-6.316c2.491-2.123,5.027-4.203,7.481-6.361c9.853-8.622,19.215-17.755,28.752-26.865
		c4.79-4.532,9.671-9.005,14.775-13.249l3.83-3.118c1.262-1.027,2.595-2.197,4.354-3.125c0.437-0.232,0.912-0.44,1.416-0.616
		l0.383-0.125c0.157-0.045,0.338-0.092,0.508-0.122c0.346-0.064,0.699-0.097,1.069-0.086c0.73,0.029,1.571,0.206,2.349,0.778
		c0.777,0.57,1.311,1.439,1.462,2.382c0.142,0.915-0.027,1.629-0.198,2.197c-0.183,0.573-0.397,1.027-0.597,1.435
		c-0.409,0.837-0.876,1.622-1.368,2.367c-0.98,1.489-2.081,2.814-3.082,4.088l-3.037,3.853l-6.079,7.749l-6.07,7.742
		c-1.926,2.509-3.606,5.122-4.215,7.831c-0.31,1.334-0.334,2.751-0.016,3.855c0.333,1.123,1.03,2.1,2.094,2.881
		c2.112,1.598,5.215,2.301,8.291,2.728c3.093,0.408,6.28,0.472,9.514,0.466c3.223,0.025,6.494-0.194,9.898,0.093
		c0.637,0.054,1.11,0.614,1.057,1.251c-0.047,0.555-0.478,0.986-1.01,1.052L97,67.481c-3.17,0.394-6.436,0.984-9.783,1.213
		c-3.328,0.261-6.738,0.304-10.169-0.118c-1.725-0.228-3.401-0.525-5.145-1.029c-1.728-0.516-3.472-1.233-5.065-2.418
		c-1.595-1.141-2.983-2.926-3.575-4.963c-0.286-0.999-0.433-2.071-0.407-3.026c0.004-0.973,0.111-1.943,0.323-2.87
		c0.844-3.75,2.892-6.774,4.911-9.468l6.049-7.809l6.069-7.779l3.067-3.887c1.03-1.306,2.03-2.517,2.857-3.775
		c0.414-0.626,0.788-1.256,1.1-1.896c0.164-0.328,0.292-0.624,0.358-0.834c0.072-0.212,0.053-0.331,0.062-0.231
		c0.025,0.129,0.092,0.25,0.207,0.334c0.117,0.074,0.121,0.049,0.036,0.045c-0.042-0.002-0.1,0.004-0.157,0.014l-0.091,0.021
		l-0.202,0.067c-0.272,0.095-0.553,0.214-0.841,0.368c-1.161,0.6-2.346,1.586-3.62,2.637l-3.815,3.103
		c-5.002,4.162-9.839,8.549-14.605,13.039c-9.494,9.019-18.982,18.224-28.94,26.889c-2.487,2.175-5.039,4.256-7.555,6.389
		c-2.533,2.11-5.031,4.264-7.593,6.338l-3.846,3.105l-1.877,1.526c-0.334,0.277-0.704,0.59-1.189,0.9
		c-0.478,0.303-1.084,0.627-1.9,0.76c-0.399,0.063-0.86,0.066-1.271-0.011c-0.41-0.082-0.973-0.21-1.579-0.758
		c-0.293-0.266-0.549-0.658-0.683-1.046c-0.136-0.388-0.167-0.762-0.151-1.06c0.036-0.614,0.2-1.017,0.36-1.364
		c0.083-0.169,0.171-0.327,0.263-0.472l0.205-0.309c0.133-0.206,0.277-0.391,0.417-0.586c0.286-0.373,0.579-0.735,0.879-1.071
		c1.197-1.353,2.456-2.47,3.529-3.577c1.066-1.175,2.134-2.425,3.201-3.634c1.064-1.225,2.144-2.415,3.186-3.693l6.297-7.554
		l3.149-3.777c1.04-1.266,2.043-2.56,3.066-3.838l6.111-7.693c2.055-2.547,3.992-5.205,5.999-7.798
		c2.017-2.661,4.076-5.091,5.244-7.743c0.587-1.297,0.852-2.567,0.612-3.444c-0.124-0.47-0.314-0.788-0.588-1.026
		c-0.275-0.235-0.671-0.406-1.153-0.464c-0.241-0.029-0.492-0.031-0.76-0.003c-0.315,0.042-0.632,0.087-0.956,0.169
		c-0.646,0.147-1.311,0.39-1.988,0.68c-1.348,0.573-2.769,1.421-4.279,2.148c-5.955,2.982-11.855,5.864-18.093,8.319
		c-6.234,2.468-12.816,4.115-19.446,4.739c-0.693,0.065-1.308-0.444-1.374-1.137C1.804,37.502,2.21,36.942,2.796,36.788z"/>
</g>
</svg>
